<?xml version="1.0" encoding="UTF-8"?>
<svg id="Layer_1" data-name="Layer 1" xmlns="http://www.w3.org/2000/svg" xmlns:xlink="http://www.w3.org/1999/xlink" viewBox="0 0 1080 1080">
  <defs>
    <style>
      .cls-1 {
        fill: none;
      }

      .cls-2 {
        fill: #606161;
      }

      .cls-3 {
        fill: url(#radial-gradient);
        opacity: .24;
      }

      .cls-4 {
        clip-path: url(#clippath);
      }

      .cls-5 {
        fill: #5eb28c;
      }
    </style>
    <clipPath id="clippath">
      <rect class="cls-1" x="1237.5" y="1228.5" width="1080" height="1080"/>
    </clipPath>
    <radialGradient id="radial-gradient" cx="1814.25" cy="1785.03" fx="1814.25" fy="1785.03" r="783" gradientUnits="userSpaceOnUse">
      <stop offset="0" stop-color="#132828"/>
      <stop offset=".54" stop-color="#1b2f2f" stop-opacity=".95"/>
      <stop offset=".74" stop-color="#3b4948" stop-opacity=".78"/>
      <stop offset=".87" stop-color="#717775" stop-opacity=".49"/>
      <stop offset=".99" stop-color="#beb7b5" stop-opacity=".07"/>
      <stop offset="1" stop-color="#ccc3c0" stop-opacity="0"/>
    </radialGradient>
  </defs>
  <g>
    <path class="cls-2" d="M843.92,478.37l-279.15-279.21c-5.98-5.98-15.68-5.98-21.65,0l-273.48,273.55c-89.3,89.16-116.53,190.6-72.56,284.85,4.46,9.55,17.22,11.62,24.67,4.16l87.77-87.82c5.98-5.98,15.67-5.98,21.66,0l21.23,21.23,53.5,53.58c.07,0,.14.07.21.14l78.82,78.82c19.72,19.71,40.05,36.4,60.8,49.87,4.96,3.22,11.43,3.21,16.39-.01,20.75-13.5,41.09-30.14,60.81-49.86l78.75-78.82.29-.14,53.58-53.58.14-.28,21.02-20.97c5.98-5.97,15.67-5.96,21.64.01l87.85,87.84c7.45,7.45,20.21,5.4,24.65-4.15,42.91-92.17,17.8-191.36-66.94-279.19ZM564.77,724.6s-.08.08-.12.12c-5.87,5.87-15.49,5.86-21.36,0-.04-.04-.07-.07-.11-.11l-131.4-131.4c-5.98-5.98-5.98-15.68,0-21.65l131.33-131.27c5.98-5.98,15.67-5.98,21.65,0l131.33,131.27c5.98,5.98,5.98,15.67,0,21.65l-131.33,131.4Z"/>
    <path class="cls-5" d="M843.92,478.37l-279.15-279.21c-5.98-5.98-15.68-5.98-21.65,0l-273.48,273.55c-89.3,89.16-116.53,190.6-72.56,284.85,4.46,9.55,17.22,11.62,24.67,4.16l87.77-87.82c5.98-5.98,15.67-5.98,21.66,0l21.23,21.23,53.5,53.58c.07,0,.14.07.21.14l78.82,78.82c19.72,19.71,40.05,36.4,60.8,49.87,4.96,3.22,11.43,3.21,16.39-.01,20.75-13.5,41.09-30.14,60.81-49.86l78.75-78.82.29-.14,53.58-53.58.14-.28,21.02-20.97c5.98-5.97,15.67-5.96,21.64.01l87.85,87.84c7.45,7.45,20.21,5.4,24.65-4.15,42.91-92.17,17.8-191.36-66.94-279.19ZM564.77,724.6s-.08.08-.12.12c-5.87,5.87-15.49,5.86-21.36,0-.04-.04-.07-.07-.11-.11l-131.4-131.4c-5.98-5.98-5.98-15.68,0-21.65l131.33-131.27c5.98-5.98,15.67-5.98,21.65,0l131.33,131.27c5.98,5.98,5.98,15.67,0,21.65l-131.33,131.4Z"/>
  </g>
  <g class="cls-4">
    <circle class="cls-3" cx="1777.5" cy="1768.5" r="783"/>
  </g>
</svg>